{
  "accessors": [
    {
      "bufferView": 2,
      "componentType": 5126,
      "count": 4582,
      "max": [
        503.91033935546875,
        104.27999877929688,
        1485.5848388671875
      ],
      "min": [
        -502.1783447265625,
        -167.06143188476563,
        832.9208984375
      ],
      "type": "VEC3"
    },
    {
      "bufferView": 2,
      "byteOffset": 54984,
      "componentType": 5126,
      "count": 4582,
      "max": [
        0.9999443292617798,
        0.9999735355377197,
        0.9425514936447144
      ],
      "min": [
        -0.9997272491455078,
        -1.0,
        -0.773324191570282
      ],
      "type": "VEC3"
    },
    {
      "bufferView": 1,
      "componentType": 5126,
      "count": 4582,
      "max": [
        407.5250244140625,
        416.1279296875
      ],
      "min": [
        -407.5250244140625,
        -405.2681884765625
      ],
      "type": "VEC2"
    },
    {
      "bufferView": 0,
      "componentType": 5125,
      "count": 24345,
      "type": "SCALAR"
    }
  ],
  "asset": {
    "extras": {
      "author": "Androkumura (https://sketchfab.com/Androkumura)",
      "license": "CC-BY-4.0 (http://creativecommons.org/licenses/by/4.0/)",
      "source": "https://sketchfab.com/3d-models/yellow-dress-6963e411cdd84e198ec0aef28389dc2e",
      "title": "Yellow dress"
    },
    "generator": "Sketchfab-12.68.0",
    "version": "2.0"
  },
  "bufferViews": [
    {
      "buffer": 0,
      "byteLength": 97380,
      "name": "floatBufferViews",
      "target": 34963
    },
    {
      "buffer": 0,
      "byteLength": 36656,
      "byteOffset": 97380,
      "byteStride": 8,
      "name": "floatBufferViews",
      "target": 34962
    },
    {
      "buffer": 0,
      "byteLength": 109968,
      "byteOffset": 134036,
      "byteStride": 12,
      "name": "floatBufferViews",
      "target": 34962
    }
  ],
  "buffers": [
    {
      "byteLength": 244004,
      "uri": "scene.bin"
    }
  ],
  "materials": [
    {
      "doubleSided": true,
      "name": "FABRIC_1_FRONT_3504",
      "pbrMetallicRoughness": {
        "baseColorFactor": [
          0.886275,
          0.683818,
          0.076463,
          1.0
        ],
        "metallicFactor": 0.0,
        "roughnessFactor": 0.9827475502465659
      }
    }
  ],
  "meshes": [
    {
      "name": "Object_0",
      "primitives": [
        {
          "attributes": {
            "NORMAL": 1,
            "POSITION": 0,
            "TEXCOORD_0": 2
          },
          "indices": 3,
          "material": 0,
          "mode": 4
        }
      ]
    }
  ],
  "nodes": [
    {
      "children": [
        1
      ],
      "matrix": [
        1.0,
        0.0,
        0.0,
        0.0,
        0.0,
        2.220446049250313e-16,
        -1.0,
        0.0,
        0.0,
        1.0,
        2.220446049250313e-16,
        0.0,
        0.0,
        0.0,
        0.0,
        1.0
      ],
      "name": "Sketchfab_model"
    },
    {
      "children": [
        2
      ],
      "name": "Yellow dress.obj.cleaner.materialmerger.gles"
    },
    {
      "mesh": 0,
      "name": "Object_2"
    }
  ],
  "scene": 0,
  "scenes": [
    {
      "name": "Sketchfab_Scene",
      "nodes": [
        0
      ]
    }
  ]
}
